<?xml version="1.0" standalone="no"?>
<!DOCTYPE svg PUBLIC "-//W3C//DTD SVG 20010904//EN"
 "http://www.w3.org/TR/2001/REC-SVG-20010904/DTD/svg10.dtd">
<svg version="1.0" xmlns="http://www.w3.org/2000/svg"
 width="270.000000pt" height="270.000000pt" viewBox="0 0 270.000000 270.000000"
 preserveAspectRatio="xMidYMid meet">
<metadata>
Created by potrace 1.11, written by Peter Selinger 2001-2013
</metadata>
<g transform="translate(0.000000,270.000000) scale(0.100000,-0.100000)"
fill="#000000" stroke="none">
<path d="M534 2359 c-2 -4 -11 -6 -18 -3 -14 5 -43 -23 -33 -33 4 -3 2 -12 -4
-19 -7 -8 -7 -14 1 -19 8 -5 8 -11 -1 -21 -6 -8 -7 -14 -2 -14 11 0 11 -29 0
-47 -4 -6 -3 -15 3 -18 8 -5 7 -11 -1 -21 -9 -11 -9 -14 0 -14 8 0 9 -5 2 -18
-5 -10 -6 -24 -1 -32 5 -8 5 -21 -1 -31 -6 -12 -5 -20 1 -24 8 -5 8 -11 0 -20
-6 -7 -7 -16 -2 -19 10 -6 9 -36 -1 -53 -4 -6 -2 -13 4 -15 7 -2 4 -12 -8 -27
-17 -21 -26 -23 -118 -23 -55 0 -106 -5 -112 -10 -20 -16 -18 -232 3 -248 10
-9 49 -14 115 -14 76 -1 102 -4 109 -16 5 -8 7 -17 4 -21 -2 -4 0 -11 6 -14 8
-5 8 -11 0 -20 -8 -10 -8 -15 0 -20 8 -5 8 -11 -1 -21 -9 -11 -9 -14 0 -14 8
0 9 -6 2 -18 -6 -11 -6 -24 0 -35 7 -12 6 -17 -2 -17 -8 0 -9 -4 0 -13 8 -10
7 -17 -1 -25 -9 -9 -9 -12 0 -12 9 0 10 -5 3 -18 -6 -11 -6 -24 0 -35 7 -12 6
-17 -2 -17 -7 0 -8 -5 -3 -12 11 -15 11 -38 1 -55 -4 -6 -3 -15 3 -18 8 -5 8
-11 0 -20 -8 -10 -8 -15 0 -20 8 -5 8 -10 0 -20 -8 -10 -8 -15 0 -20 8 -5 8
-11 -1 -21 -9 -11 -9 -17 0 -28 9 -10 9 -16 1 -21 -6 -4 -7 -12 -2 -18 9 -13
8 -54 -1 -64 -4 -3 -2 -14 4 -24 7 -14 6 -19 -2 -19 -8 0 -9 -4 0 -13 8 -10 7
-17 -1 -25 -8 -8 -8 -12 -1 -12 10 0 10 -47 -1 -57 -3 -3 -1 -14 4 -24 7 -12
7 -20 0 -24 -7 -4 -7 -13 0 -26 8 -14 7 -19 -1 -19 -9 0 -9 -3 0 -14 8 -10 9
-16 1 -21 -6 -3 -7 -12 -3 -18 4 -7 8 -21 9 -32 0 -11 4 -34 8 -50 4 -17 10
-38 12 -49 2 -10 11 -27 20 -37 10 -11 14 -19 11 -19 -3 0 7 -15 24 -32 16
-18 29 -36 29 -41 0 -4 4 -5 10 -2 5 3 10 2 10 -3 0 -26 158 -84 215 -77 14 1
25 -2 25 -6 0 -5 11 -4 25 1 15 6 26 6 30 0 4 -7 13 -6 25 0 13 7 20 6 23 -3
3 -9 7 -9 19 0 8 7 17 10 21 7 14 -14 24 38 23 114 0 49 3 82 9 82 6 0 4 4 -3
9 -17 11 -17 21 0 32 8 5 9 9 2 9 -7 0 -14 9 -17 20 -5 20 -12 22 -104 22 -24
0 -43 4 -43 9 0 5 -6 9 -13 9 -12 0 -37 32 -46 60 -2 8 -6 208 -7 444 -3 380
-2 432 12 447 13 15 31 17 101 16 111 -3 112 -2 110 138 -1 61 -5 115 -9 121
-4 6 -45 11 -98 12 -53 0 -97 5 -105 12 -11 9 -14 55 -13 223 0 209 0 211 -23
230 -13 10 -25 15 -27 9 -1 -5 -19 -6 -42 -2 -24 4 -43 3 -49 -3 -8 -8 -11 -7
-11 3 0 10 -3 11 -11 3 -6 -6 -25 -7 -50 -3 -22 4 -42 4 -45 -1z"/>
<path d="M1187 1883 c-9 -2 -15 -9 -12 -14 4 -5 2 -9 -4 -9 -5 0 -6 -10 -3
-22 8 -25 82 -141 95 -146 4 -2 7 -9 7 -16 0 -7 9 -21 20 -31 11 -10 20 -22
20 -26 0 -11 62 -103 73 -107 4 -2 7 -10 7 -18 0 -8 5 -14 10 -14 6 0 10 -6
10 -14 0 -8 3 -16 8 -18 10 -5 52 -66 52 -77 0 -5 3 -11 8 -13 10 -5 52 -66
52 -77 0 -5 4 -11 8 -13 12 -5 70 -92 82 -122 7 -19 6 -29 -5 -40 -8 -8 -15
-19 -15 -25 0 -5 -6 -16 -12 -23 -22 -23 -118 -167 -118 -177 0 -5 -3 -11 -8
-13 -4 -1 -40 -52 -81 -113 -40 -60 -78 -113 -85 -117 -6 -4 -7 -8 -1 -8 7 0
6 -3 0 -8 -6 -4 -35 -45 -65 -92 -30 -47 -58 -87 -62 -90 -4 -3 -12 -18 -18
-34 -8 -23 -7 -32 5 -46 9 -10 24 -17 33 -15 9 1 21 0 27 -3 14 -9 45 -10 45
-2 0 8 37 6 46 -3 4 -3 15 -2 25 4 14 7 19 6 19 -2 0 -9 3 -9 14 0 10 8 16 9
21 1 4 -7 12 -7 26 0 13 8 19 7 19 0 0 -7 6 -8 19 -1 10 6 20 8 23 6 2 -3 17
18 34 45 16 27 32 50 37 50 4 0 7 7 7 15 0 7 8 19 18 24 9 6 14 11 9 11 -7 0
19 48 33 60 3 3 28 41 55 85 27 44 51 82 54 85 8 7 28 39 43 68 16 32 55 40
78 16 10 -11 43 -59 74 -109 30 -49 59 -94 63 -100 5 -5 40 -59 78 -120 74
-117 89 -137 98 -129 3 4 12 2 19 -2 16 -10 48 -13 48 -4 0 8 37 6 46 -3 4 -3
15 -2 25 4 14 7 19 6 19 -2 0 -9 3 -9 14 0 10 8 16 9 21 1 4 -7 12 -7 26 0 12
7 19 7 19 1 0 -7 9 -7 25 -1 14 5 25 7 25 4 0 -3 7 1 15 10 8 8 15 23 15 33 0
10 -50 93 -110 183 -61 91 -116 173 -123 184 -6 10 -18 25 -25 32 -7 8 -10 14
-5 14 4 0 4 4 -2 8 -14 10 -55 69 -55 79 0 4 -13 22 -28 38 -16 17 -29 33 -30
38 -1 4 -24 41 -52 83 -41 60 -50 80 -43 97 7 20 160 255 173 267 3 3 21 30
40 60 19 30 40 61 47 68 7 7 13 17 13 22 0 5 6 15 13 22 7 7 28 38 47 68 19
30 43 64 52 74 10 11 18 24 18 30 0 5 9 20 21 32 23 24 32 73 17 92 -8 9 -53
12 -164 12 l-153 0 -29 -42 c-16 -24 -48 -77 -73 -118 -24 -41 -46 -77 -50
-80 -3 -3 -14 -18 -23 -35 -9 -16 -28 -48 -41 -70 -14 -22 -28 -47 -32 -55
-14 -30 -47 -60 -67 -60 -13 0 -30 13 -42 33 -56 84 -94 148 -94 157 0 6 -4
10 -8 10 -5 0 -17 18 -28 40 -10 22 -22 40 -25 40 -4 0 -12 14 -19 30 -7 17
-17 30 -22 30 -5 0 -6 5 -3 10 3 6 1 10 -5 10 -6 0 -9 4 -6 9 3 5 -1 11 -9 15
-8 3 -15 12 -15 21 0 8 -9 24 -20 35 -18 18 -32 20 -162 19 -79 -1 -151 -3
-161 -6z"/>
</g>
</svg>
