<?xml version="1.0" standalone="no"?>
<!DOCTYPE svg PUBLIC "-//W3C//DTD SVG 20010904//EN"
 "http://www.w3.org/TR/2001/REC-SVG-20010904/DTD/svg10.dtd">
<svg version="1.0" xmlns="http://www.w3.org/2000/svg"
 width="268.000000pt" height="268.000000pt" viewBox="0 0 268.000000 268.000000"
 preserveAspectRatio="xMidYMid meet">
<metadata>
Created by potrace 1.11, written by Peter Selinger 2001-2013
</metadata>
<g transform="translate(0.000000,268.000000) scale(0.100000,-0.100000)"
fill="#000000" stroke="none">
<path d="M1264 1586 c-54 -17 -154 -71 -184 -100 -82 -76 -103 -116 -105 -194
-1 -43 2 -55 17 -63 19 -10 19 -11 1 -25 -17 -14 -17 -14 4 -5 25 13 59 14 66
4 2 -5 3 -3 1 3 -2 11 44 39 58 36 5 -1 7 4 5 11 -1 7 7 11 23 9 17 -1 21 1
12 7 -10 6 -3 16 27 41 l41 32 -31 -58 c-49 -88 -76 -125 -112 -150 -55 -38
-78 -70 -68 -97 9 -22 41 -34 41 -15 0 5 5 6 10 3 6 -3 10 0 10 8 0 17 46 58
56 49 4 -4 4 -1 0 6 -9 15 22 55 36 46 4 -3 7 0 6 6 -2 7 6 17 17 23 11 7 23
17 27 22 5 6 8 6 8 0 0 -5 7 1 16 13 8 12 21 19 27 16 7 -4 9 -4 5 1 -4 4 4
16 17 27 14 11 25 24 25 30 0 7 -5 6 -15 -2 -8 -6 -20 -8 -26 -4 -7 4 -9 3 -6
-3 4 -6 -9 -20 -28 -32 -35 -20 -35 -20 -25 -1 6 12 15 18 20 15 6 -3 7 1 4 9
-3 9 -2 16 3 16 5 0 15 16 22 36 11 30 15 33 29 22 14 -11 14 -11 4 7 -8 15
-7 24 3 36 24 26 23 63 -1 67 -14 2 -42 -17 -90 -62 -37 -35 -72 -62 -76 -60
-4 3 -8 1 -8 -4 0 -11 -72 -62 -87 -62 -22 0 -26 41 -6 56 10 9 12 12 4 8 -10
-5 -12 -3 -6 7 25 42 49 68 58 62 6 -3 7 -1 4 4 -8 13 19 37 32 29 5 -4 13 -1
17 5 5 8 3 9 -6 4 -8 -5 -11 -3 -8 6 3 8 12 13 21 13 9 -1 14 2 11 7 -7 13 20
11 32 -1 7 -7 11 -6 11 4 0 8 -4 13 -8 10 -4 -2 -10 -1 -12 3 -2 5 21 21 52
36 31 15 48 21 38 13 -10 -8 -18 -17 -18 -20 2 -17 0 -20 -8 -8 -7 11 -9 11
-14 -2 -8 -21 6 -20 46 1 18 9 34 18 37 18 21 6 39 19 35 25 -3 5 -1 11 5 15
5 3 9 16 8 29 -2 27 -41 32 -104 12z"/>
<path d="M1330 1385 c0 -14 -6 -25 -12 -25 -9 0 -10 -2 -2 -8 16 -10 16 -134
1 -125 -7 4 -6 -1 2 -10 7 -9 11 -22 8 -29 -3 -8 4 -13 17 -13 19 0 22 5 20
37 -1 25 4 39 14 43 11 4 13 0 9 -15 -3 -11 -2 -18 3 -15 12 7 33 -23 24 -36
-4 -8 -3 -9 4 -5 7 4 12 4 12 -1 0 -4 11 -8 23 -8 24 0 24 0 -10 49 -18 26
-33 53 -33 59 0 6 12 24 27 39 25 26 25 28 7 28 -11 0 -34 -14 -52 -31 l-31
-30 1 43 c1 68 -1 78 -17 78 -9 0 -15 -9 -15 -25z"/>
<path d="M1488 1368 c-2 -24 -2 -78 0 -120 3 -71 5 -77 21 -68 12 6 17 18 15
37 -1 15 3 34 9 42 9 12 9 13 0 7 -10 -5 -13 2 -13 26 0 19 6 40 13 47 10 11
9 12 -1 6 -8 -4 -13 -2 -11 6 4 34 -2 59 -15 59 -10 0 -16 -14 -18 -42z"/>
<path d="M1190 1149 c0 -5 5 -7 10 -4 6 3 10 8 10 11 0 2 -4 4 -10 4 -5 0 -10
-5 -10 -11z"/>
</g>
</svg>
